# xmcd
#
# Track frame offsets: 
#        225
#        25608
#        46253
#        80344
#        96478
#        119476
#        145080
#        181586
#        195752
#        232022
#
# Disc length: 3344 seconds
#
# Revision: 1
# Processed by: cddbd v1.5.2PL0 Copyright (c) Steve Scherf et al.
# Submitted via: ExactAudioCopy v0.99pb4
#
DISCID=760d0d0a
DTITLE=Smokin' Gun - Bad Luck Blues
DYEAR=1997
DGENRE=Blues
TTITLE0=Bad Luck Blues
TTITLE1=Don't Touch My Girl
TTITLE2=Nothin Good To Say
TTITLE3=I Need You Baby
TTITLE4=Born Under A Bad Sign
TTITLE5=Don't Go
TTITLE6=A Fool For Your Stockings
TTITLE7=The Blues Ain't Nothin
TTITLE8=Road House Blues
TTITLE9=Fast Train
EXTD=
EXTT0=
EXTT1=
EXTT2=
EXTT3=
EXTT4=
EXTT5=
EXTT6=
EXTT7=
EXTT8=
EXTT9=
PLAYORDER=
